<mxfile host="app.diagrams.net" modified="2023-04-27T14:48:43.204Z" agent="Mozilla/5.0 (Windows NT 10.0; Win64; x64) AppleWebKit/537.36 (KHTML, like Gecko) Chrome/112.0.0.0 Safari/537.36" etag="OK8BOzCQ642ihpU_RiHI" version="21.2.1" type="device">
  <diagram name="Page-1" id="QlAS6P0ZarEfJbWY2PkY">
    <mxGraphModel dx="1304" dy="679" grid="1" gridSize="10" guides="1" tooltips="1" connect="1" arrows="1" fold="1" page="0" pageScale="1" pageWidth="827" pageHeight="1169" math="0" shadow="0">
      <root>
        <mxCell id="0" />
        <mxCell id="1" parent="0" />
        <mxCell id="psEK_-1R5tJC7iqlsom0-31" value="" style="group" vertex="1" connectable="0" parent="1">
          <mxGeometry x="70" y="260" width="80" height="290" as="geometry" />
        </mxCell>
        <mxCell id="psEK_-1R5tJC7iqlsom0-30" value="End-user devices" style="fillColor=#EFF0F3;strokeColor=none;dashed=0;verticalAlign=top;fontStyle=0;fontColor=#232F3D;whiteSpace=wrap;html=1;" vertex="1" parent="psEK_-1R5tJC7iqlsom0-31">
          <mxGeometry width="80" height="290" as="geometry" />
        </mxCell>
        <mxCell id="psEK_-1R5tJC7iqlsom0-21" value="" style="sketch=0;outlineConnect=0;fontColor=#232F3E;gradientColor=none;fillColor=#232F3D;strokeColor=none;dashed=0;verticalLabelPosition=bottom;verticalAlign=top;align=center;html=1;fontSize=12;fontStyle=0;aspect=fixed;pointerEvents=1;shape=mxgraph.aws4.mobile_client;points=[[1,0.25,0,0,0],[1,0.5,0,0,0],[1,0.75,0,0,0]];" vertex="1" parent="psEK_-1R5tJC7iqlsom0-31">
          <mxGeometry x="19.5" y="42.5" width="41" height="78" as="geometry" />
        </mxCell>
        <mxCell id="psEK_-1R5tJC7iqlsom0-22" value="" style="sketch=0;outlineConnect=0;fontColor=#232F3E;gradientColor=none;fillColor=#232F3D;strokeColor=none;dashed=0;verticalLabelPosition=bottom;verticalAlign=top;align=center;html=1;fontSize=12;fontStyle=0;aspect=fixed;pointerEvents=1;shape=mxgraph.aws4.mobile_client;points=[[1,0.25,0,0,0],[1,0.5,0,0,0],[1,0.75,0,0,0]];" vertex="1" parent="psEK_-1R5tJC7iqlsom0-31">
          <mxGeometry x="19.5" y="121" width="41" height="78" as="geometry" />
        </mxCell>
        <mxCell id="psEK_-1R5tJC7iqlsom0-24" value="" style="sketch=0;outlineConnect=0;fontColor=#232F3E;gradientColor=none;fillColor=#232F3D;strokeColor=none;dashed=0;verticalLabelPosition=bottom;verticalAlign=top;align=center;html=1;fontSize=12;fontStyle=0;aspect=fixed;pointerEvents=1;shape=mxgraph.aws4.mobile_client;points=[[1,0.25,0,0,0],[1,0.5,0,0,0],[1,0.75,0,0,0]];" vertex="1" parent="psEK_-1R5tJC7iqlsom0-31">
          <mxGeometry x="19.5" y="200" width="41" height="78" as="geometry" />
        </mxCell>
        <mxCell id="odi_V6lT9OdnU7UhY-RL-20" value="API Gateway" style="points=[[0,0],[0.25,0],[0.5,0],[0.75,0],[1,0],[1,0.25],[1,0.5],[1,0.75],[1,1],[0.75,1],[0.5,1],[0.25,1],[0,1],[0,0.75],[0,0.5],[0,0.25]];outlineConnect=0;gradientColor=none;html=1;whiteSpace=wrap;fontSize=12;fontStyle=0;container=1;pointerEvents=0;collapsible=0;recursiveResize=0;shape=mxgraph.aws4.group;grIcon=mxgraph.aws4.group_aws_cloud_alt;strokeColor=#8552e2;fillColor=none;verticalAlign=top;align=left;spacingLeft=30;fontColor=#232F3E;dashed=0;" parent="1" vertex="1">
          <mxGeometry x="240" y="340" width="130" height="130" as="geometry" />
        </mxCell>
        <mxCell id="odi_V6lT9OdnU7UhY-RL-27" value="REST endpoint" style="sketch=0;outlineConnect=0;fontColor=#232F3E;gradientColor=none;fillColor=#4D27AA;strokeColor=none;dashed=0;verticalLabelPosition=bottom;verticalAlign=top;align=center;html=1;fontSize=12;fontStyle=0;aspect=fixed;pointerEvents=1;shape=mxgraph.aws4.endpoint;" parent="odi_V6lT9OdnU7UhY-RL-20" vertex="1">
          <mxGeometry x="45" y="45" width="40" height="40" as="geometry" />
        </mxCell>
        <mxCell id="odi_V6lT9OdnU7UhY-RL-3" value="" style="sketch=0;points=[[0,0,0],[0.25,0,0],[0.5,0,0],[0.75,0,0],[1,0,0],[0,1,0],[0.25,1,0],[0.5,1,0],[0.75,1,0],[1,1,0],[0,0.25,0],[0,0.5,0],[0,0.75,0],[1,0.25,0],[1,0.5,0],[1,0.75,0]];outlineConnect=0;fontColor=#232F3E;gradientColor=#945DF2;gradientDirection=north;fillColor=#5A30B5;strokeColor=#ffffff;dashed=0;verticalLabelPosition=bottom;verticalAlign=top;align=center;html=1;fontSize=12;fontStyle=0;aspect=fixed;shape=mxgraph.aws4.resourceIcon;resIcon=mxgraph.aws4.api_gateway;" parent="odi_V6lT9OdnU7UhY-RL-20" vertex="1">
          <mxGeometry width="25" height="25" as="geometry" />
        </mxCell>
        <mxCell id="odi_V6lT9OdnU7UhY-RL-31" style="edgeStyle=orthogonalEdgeStyle;rounded=0;orthogonalLoop=1;jettySize=auto;html=1;" parent="1" source="odi_V6lT9OdnU7UhY-RL-27" target="odi_V6lT9OdnU7UhY-RL-25" edge="1">
          <mxGeometry relative="1" as="geometry" />
        </mxCell>
        <mxCell id="glznaEs4rfP4Ca6hVpfA-1" value="High-level back-end component architecture of smart-home-integration.&lt;br&gt;&lt;br&gt;Diagram represents architecture as it was in commit&lt;br style=&quot;border-color: var(--border-color);&quot;&gt;3d962af8a16afb82fdb55bdba485113432329ce1" style="rounded=0;whiteSpace=wrap;html=1;align=left;spacing=3;spacingLeft=10;spacingBottom=10;spacingRight=10;spacingTop=10;" parent="1" vertex="1">
          <mxGeometry x="30" y="160" width="410" height="70" as="geometry" />
        </mxCell>
        <mxCell id="glznaEs4rfP4Ca6hVpfA-4" value="Notes:&lt;br&gt;- Supporting resources (e.g. roles, policies, log groups) are omitted for clarity.&lt;br&gt;- Arrows indicate direction of the &lt;i&gt;request&lt;/i&gt;; &lt;i&gt;data&lt;/i&gt; is likely to flow bi-directionally." style="rounded=0;whiteSpace=wrap;html=1;align=left;spacing=3;spacingLeft=10;spacingBottom=10;spacingRight=10;spacingTop=10;" parent="1" vertex="1">
          <mxGeometry x="30" y="580" width="502" height="60" as="geometry" />
        </mxCell>
        <mxCell id="odi_V6lT9OdnU7UhY-RL-21" value="Lambda" style="points=[[0,0],[0.25,0],[0.5,0],[0.75,0],[1,0],[1,0.25],[1,0.5],[1,0.75],[1,1],[0.75,1],[0.5,1],[0.25,1],[0,1],[0,0.75],[0,0.5],[0,0.25]];outlineConnect=0;gradientColor=none;html=1;whiteSpace=wrap;fontSize=12;fontStyle=0;container=0;pointerEvents=0;collapsible=0;recursiveResize=0;shape=mxgraph.aws4.group;grIcon=mxgraph.aws4.group_aws_cloud_alt;strokeColor=#f28806;fillColor=none;verticalAlign=top;align=left;spacingLeft=30;fontColor=#232F3E;dashed=0;" parent="1" vertex="1">
          <mxGeometry x="400" y="340" width="140" height="130" as="geometry" />
        </mxCell>
        <mxCell id="psEK_-1R5tJC7iqlsom0-37" value="" style="sketch=0;points=[[0,0,0],[0.25,0,0],[0.5,0,0],[0.75,0,0],[1,0,0],[0,1,0],[0.25,1,0],[0.5,1,0],[0.75,1,0],[1,1,0],[0,0.25,0],[0,0.5,0],[0,0.75,0],[1,0.25,0],[1,0.5,0],[1,0.75,0]];outlineConnect=0;fontColor=#232F3E;gradientColor=#F78E04;gradientDirection=north;fillColor=#D05C17;strokeColor=#ffffff;dashed=0;verticalLabelPosition=bottom;verticalAlign=top;align=center;html=1;fontSize=12;fontStyle=0;aspect=fixed;shape=mxgraph.aws4.resourceIcon;resIcon=mxgraph.aws4.lambda;" vertex="1" parent="1">
          <mxGeometry x="400" y="340" width="25" height="25" as="geometry" />
        </mxCell>
        <mxCell id="psEK_-1R5tJC7iqlsom0-49" style="edgeStyle=orthogonalEdgeStyle;rounded=0;orthogonalLoop=1;jettySize=auto;html=1;entryX=0.061;entryY=0.508;entryDx=0;entryDy=0;entryPerimeter=0;" edge="1" parent="1" source="odi_V6lT9OdnU7UhY-RL-25" target="psEK_-1R5tJC7iqlsom0-48">
          <mxGeometry relative="1" as="geometry" />
        </mxCell>
        <mxCell id="odi_V6lT9OdnU7UhY-RL-25" value="&lt;span style=&quot;color: rgb(35, 47, 62); font-family: Helvetica; font-size: 12px; font-style: normal; font-variant-ligatures: normal; font-variant-caps: normal; font-weight: 400; letter-spacing: normal; orphans: 2; text-align: center; text-indent: 0px; text-transform: none; widows: 2; word-spacing: 0px; -webkit-text-stroke-width: 0px; background-color: rgb(255, 255, 255); text-decoration-thickness: initial; text-decoration-style: initial; text-decoration-color: initial; float: none; display: inline !important;&quot;&gt;REST handlers&lt;/span&gt;" style="sketch=0;outlineConnect=0;fontColor=#232F3E;gradientColor=none;fillColor=#D45B07;strokeColor=none;dashed=0;verticalLabelPosition=bottom;verticalAlign=top;align=center;html=1;fontSize=12;fontStyle=0;aspect=fixed;pointerEvents=1;shape=mxgraph.aws4.lambda_function;" parent="1" vertex="1">
          <mxGeometry x="450" y="385.0043478260869" width="40" height="40" as="geometry" />
        </mxCell>
        <mxCell id="psEK_-1R5tJC7iqlsom0-48" value="Blink API" style="ellipse;shape=cloud;whiteSpace=wrap;html=1;" vertex="1" parent="1">
          <mxGeometry x="580" y="385" width="110" height="40" as="geometry" />
        </mxCell>
        <mxCell id="psEK_-1R5tJC7iqlsom0-50" style="edgeStyle=orthogonalEdgeStyle;rounded=0;orthogonalLoop=1;jettySize=auto;html=1;" edge="1" parent="1" source="psEK_-1R5tJC7iqlsom0-30" target="odi_V6lT9OdnU7UhY-RL-27">
          <mxGeometry relative="1" as="geometry" />
        </mxCell>
      </root>
    </mxGraphModel>
  </diagram>
</mxfile>
